<mxfile host="app.diagrams.net" modified="2022-12-04T14:10:20.678Z" agent="5.0 (Windows NT 10.0; Win64; x64) AppleWebKit/537.36 (KHTML, like Gecko) Chrome/106.0.0.0 YaBrowser/22.11.0.2500 Yowser/2.5 Safari/537.36" etag="p944YjDV3YtkZAWXjpY8" version="20.6.0" type="github">
  <diagram id="C5RBs43oDa-KdzZeNtuy" name="Page-1">
    <mxGraphModel dx="2201" dy="799" grid="1" gridSize="10" guides="1" tooltips="1" connect="1" arrows="1" fold="1" page="1" pageScale="1" pageWidth="827" pageHeight="1169" math="0" shadow="0">
      <root>
        <mxCell id="WIyWlLk6GJQsqaUBKTNV-0" />
        <mxCell id="WIyWlLk6GJQsqaUBKTNV-1" parent="WIyWlLk6GJQsqaUBKTNV-0" />
        <mxCell id="ZLsMlw6gmBBSeoXKhvs7-3" style="edgeStyle=orthogonalEdgeStyle;rounded=0;orthogonalLoop=1;jettySize=auto;html=1;exitX=0.5;exitY=1;exitDx=0;exitDy=0;exitPerimeter=0;entryX=0.5;entryY=0;entryDx=0;entryDy=0;" edge="1" parent="WIyWlLk6GJQsqaUBKTNV-1" source="ZLsMlw6gmBBSeoXKhvs7-0" target="ZLsMlw6gmBBSeoXKhvs7-1">
          <mxGeometry relative="1" as="geometry" />
        </mxCell>
        <mxCell id="ZLsMlw6gmBBSeoXKhvs7-0" value="НАЧАЛО" style="strokeWidth=2;html=1;shape=mxgraph.flowchart.terminator;whiteSpace=wrap;" vertex="1" parent="WIyWlLk6GJQsqaUBKTNV-1">
          <mxGeometry x="-50" y="100" width="120" height="60" as="geometry" />
        </mxCell>
        <mxCell id="ZLsMlw6gmBBSeoXKhvs7-4" style="edgeStyle=orthogonalEdgeStyle;rounded=0;orthogonalLoop=1;jettySize=auto;html=1;exitX=0.5;exitY=1;exitDx=0;exitDy=0;entryX=0.5;entryY=0;entryDx=0;entryDy=0;entryPerimeter=0;" edge="1" parent="WIyWlLk6GJQsqaUBKTNV-1" source="ZLsMlw6gmBBSeoXKhvs7-1" target="ZLsMlw6gmBBSeoXKhvs7-2">
          <mxGeometry relative="1" as="geometry" />
        </mxCell>
        <mxCell id="ZLsMlw6gmBBSeoXKhvs7-1" value="&lt;font style=&quot;font-size: 14px;&quot;&gt;return(pow(x,3)*&lt;br&gt;2+pow(x,2)&lt;br&gt;+(5*x)+9)&lt;/font&gt;" style="rounded=0;whiteSpace=wrap;html=1;" vertex="1" parent="WIyWlLk6GJQsqaUBKTNV-1">
          <mxGeometry x="-50" y="200" width="120" height="60" as="geometry" />
        </mxCell>
        <mxCell id="ZLsMlw6gmBBSeoXKhvs7-2" value="КОНЕЦ" style="strokeWidth=2;html=1;shape=mxgraph.flowchart.terminator;whiteSpace=wrap;" vertex="1" parent="WIyWlLk6GJQsqaUBKTNV-1">
          <mxGeometry x="-50" y="290" width="120" height="60" as="geometry" />
        </mxCell>
      </root>
    </mxGraphModel>
  </diagram>
</mxfile>
